<svg xmlns="http://www.w3.org/2000/svg" xmlns:xlink="http://www.w3.org/1999/xlink" width="1850" height="602.75"><rect width="1850" height="602.75" rx="5" ry="5" class="a"/><svg y="0%" x="0%"><circle cx="20" cy="20" r="6" fill="#ff5f58"/><circle cx="40" cy="20" r="6" fill="#ffbd2e"/><circle cx="60" cy="20" r="6" fill="#18c132"/></svg><svg height="542.75" viewBox="0 0 181 54.275" width="1810" x="15" xmlns="http://www.w3.org/2000/svg" xmlns:xlink="http://www.w3.org/1999/xlink" y="50"><style>@keyframes t{0%{transform:translateX(0)}.4%{transform:translateX(-181px)}18.32%{transform:translateX(-362px)}20.37%{transform:translateX(-543px)}33.59%{transform:translateX(-724px)}41.19%{transform:translateX(-905px)}43.63%{transform:translateX(-1086px)}44.77%{transform:translateX(-1448px)}44.78%{transform:translateX(-2715px)}44.91%{transform:translateX(-2896px)}69.46%{transform:translateX(-3077px)}71.53%{transform:translateX(-3258px)}77.9%{transform:translateX(-3439px)}77.91%{transform:translateX(-3620px)}78.64%{transform:translateX(-4344px)}78.65%{transform:translateX(-5249px)}78.76%{transform:translateX(-5430px)}98.26%{transform:translateX(-5611px)}98.99%{transform:translateX(-5792px)}99.22%{transform:translateX(-5973px)}99.44%{transform:translateX(-6154px)}to{transform:translateX(-6516px)}}.a{fill:#282d35}.f,.g{white-space:pre}.f{fill:#a8cc8c;font-weight:700}.g{fill:#b9c0cb}.h{font-weight:700}.h,.i{fill:#71bef2;white-space:pre}.j,.k{font-weight:700}.j{fill:#b9bfca;white-space:pre}.k{fill:#e88388}.k,.l,.m,.n{white-space:pre}.l{fill:#b9c0cb;font-weight:700}.m,.n{fill:#66c2cd}.n{fill:#dbab79;font-weight:700}.o{fill:#b9c0cb}.p,.q{fill:#282d35;white-space:pre}.q{fill:#e88388}</style><g font-family="Monaco,Consolas,Menlo,'Bitstream Vera Sans Mono','Powerline Symbols',monospace" font-size="1.67"><defs><symbol id="1"><text y="1.67" class="f">pyjeebz@JEEBZ-PC</text><text x="16.032" y="1.67" class="g">:</text><text x="17.034" y="1.67" class="h">~/pactwatch</text><text x="28.056" y="1.67" class="g">$</text></symbol><symbol id="2"><text y="1.67" class="f">pyjeebz@JEEBZ-PC</text><text x="16.032" y="1.67" class="g">:</text><text x="17.034" y="1.67" class="h">~/pactwatch</text><text x="28.056" y="1.67" class="g">$</text><text x="30.06" y="1.67" class="g">pactwatch</text><text x="40.08" y="1.67" class="g">diff</text><text x="45.09" y="1.67" class="g">examples/demo-monorepo/services/producer-api/openapi.yaml</text><text x="103.206" y="1.67" class="g">examples/demo-monorepo/services/producer-api/openapi-breaking.yaml</text></symbol><symbol id="3"><text y="1.67" class="i">╭─────────────────────────────────────────────────────────────────────────────────────────────────────────────────────────────────────────────────────────────────╮</text></symbol><symbol id="4"><text y="1.67" class="i">│</text><text x="2.004" y="1.67" class="j">PactWatch</text><text x="12.024" y="1.67" class="j">-</text><text x="14.028" y="1.67" class="j">Change</text><text x="21.042" y="1.67" class="j">Report</text><text x="162.324" y="1.67" class="i">│</text></symbol><symbol id="5"><text y="1.67" class="i">╰─────────────────────────────────────────────────────────────────────────────────────────────────────────────────────────────────────────────────────────────────╯</text></symbol><symbol id="6"><text x="73.146" y="1.67" class="k">[X]</text><text x="78.156" y="1.67" class="k">BREAKING</text><text x="87.174" y="1.67" class="k">(2)</text></symbol><symbol id="7"><text y="1.67" class="g">┏━━━━━━━━━━━━━━━━━━━━━━━━━━━━━━━━━━━━━━━━━━━━━━━━━━━━━━┳━━━━━━━━━━━━━━━━━━━━━━━━━━━━━━━━━━━━━━━━━━━━━━━━━━━━━━━━━━━━━━━━━━━━━━━━━━━━━━━━━━━━━━━━━━━━━━━━━━━━━━━━━━┓</text></symbol><symbol id="8"><text y="1.67" class="g">┃</text><text x="2.004" y="1.67" class="l">Path</text><text x="55.11" y="1.67" class="g">┃</text><text x="57.114" y="1.67" class="l">Change</text><text x="162.324" y="1.67" class="g">┃</text></symbol><symbol id="9"><text y="1.67" class="g">┡━━━━━━━━━━━━━━━━━━━━━━━━━━━━━━━━━━━━━━━━━━━━━━━━━━━━━━╇━━━━━━━━━━━━━━━━━━━━━━━━━━━━━━━━━━━━━━━━━━━━━━━━━━━━━━━━━━━━━━━━━━━━━━━━━━━━━━━━━━━━━━━━━━━━━━━━━━━━━━━━━━┩</text></symbol><symbol id="10"><text y="1.67" class="g">│</text><text x="2.004" y="1.67" class="m">GET</text><text x="6.012" y="1.67" class="m">/users/{id}</text><text x="55.11" y="1.67" class="g">│</text><text x="57.114" y="1.67" class="g">Removed</text><text x="65.13" y="1.67" class="g">required</text><text x="74.148" y="1.67" class="g">response</text><text x="83.166" y="1.67" class="g">field</text><text x="89.178" y="1.67" class="g">&apos;email&apos;</text><text x="97.194" y="1.67" class="g">from</text><text x="102.204" y="1.67" class="g">GET</text><text x="106.212" y="1.67" class="g">/users/{id}</text><text x="162.324" y="1.67" class="g">│</text></symbol><symbol id="11"><text y="1.67" class="g">├──────────────────────────────────────────────────────┼──────────────────────────────────────────────────────────────────────────────────────────────────────────┤</text></symbol><symbol id="12"><text y="1.67" class="g">│</text><text x="2.004" y="1.67" class="m">GET</text><text x="6.012" y="1.67" class="m">/users/{id}</text><text x="55.11" y="1.67" class="g">│</text><text x="57.114" y="1.67" class="g">Status</text><text x="64.128" y="1.67" class="g">code</text><text x="69.138" y="1.67" class="g">404</text><text x="73.146" y="1.67" class="g">removed</text><text x="81.162" y="1.67" class="g">from</text><text x="86.172" y="1.67" class="g">GET</text><text x="90.18" y="1.67" class="g">/users/{id}</text><text x="162.324" y="1.67" class="g">│</text></symbol><symbol id="13"><text y="1.67" class="g">└──────────────────────────────────────────────────────┴──────────────────────────────────────────────────────────────────────────────────────────────────────────┘</text></symbol><symbol id="14"><text x="75.15" y="1.67" class="f">[+]</text><text x="80.16" y="1.67" class="f">SAFE</text><text x="85.17" y="1.67" class="f">(5)</text></symbol><symbol id="15"><text y="1.67" class="g">│</text><text x="2.004" y="1.67" class="m">GET</text><text x="6.012" y="1.67" class="m">/admin/settings</text><text x="55.11" y="1.67" class="g">│</text><text x="57.114" y="1.67" class="g">New</text><text x="61.122" y="1.67" class="g">response</text><text x="70.14" y="1.67" class="g">field</text><text x="76.152" y="1.67" class="g">&apos;language&apos;</text><text x="87.174" y="1.67" class="g">added</text><text x="93.186" y="1.67" class="g">to</text><text x="96.192" y="1.67" class="g">GET</text><text x="100.2" y="1.67" class="g">/admin/settings</text><text x="162.324" y="1.67" class="g">│</text></symbol><symbol id="16"><text y="1.67" class="g">│</text><text x="2.004" y="1.67" class="m">GET</text><text x="6.012" y="1.67" class="m">/health</text><text x="55.11" y="1.67" class="g">│</text><text x="57.114" y="1.67" class="g">New</text><text x="61.122" y="1.67" class="g">endpoint:</text><text x="71.142" y="1.67" class="g">GET</text><text x="75.15" y="1.67" class="g">/health</text><text x="162.324" y="1.67" class="g">│</text></symbol><symbol id="17"><text y="1.67" class="g">│</text><text x="2.004" y="1.67" class="m">GET</text><text x="6.012" y="1.67" class="m">/users</text><text x="55.11" y="1.67" class="g">│</text><text x="57.114" y="1.67" class="g">Description/summary</text><text x="77.154" y="1.67" class="g">changed</text><text x="85.17" y="1.67" class="g">on</text><text x="88.176" y="1.67" class="g">GET</text><text x="92.184" y="1.67" class="g">/users</text><text x="162.324" y="1.67" class="g">│</text></symbol><symbol id="18"><text y="1.67" class="g">│</text><text x="2.004" y="1.67" class="m">GET</text><text x="6.012" y="1.67" class="m">/users/{id}</text><text x="55.11" y="1.67" class="g">│</text><text x="57.114" y="1.67" class="g">New</text><text x="61.122" y="1.67" class="g">response</text><text x="70.14" y="1.67" class="g">field</text><text x="76.152" y="1.67" class="g">&apos;avatar_url&apos;</text><text x="89.178" y="1.67" class="g">added</text><text x="95.19" y="1.67" class="g">to</text><text x="98.196" y="1.67" class="g">GET</text><text x="102.204" y="1.67" class="g">/users/{id}</text><text x="162.324" y="1.67" class="g">│</text></symbol><symbol id="19"><text y="1.67" class="g">│</text><text x="2.004" y="1.67" class="m">GET</text><text x="6.012" y="1.67" class="m">/users/{id}</text><text x="55.11" y="1.67" class="g">│</text><text x="57.114" y="1.67" class="g">New</text><text x="61.122" y="1.67" class="g">enum</text><text x="66.132" y="1.67" class="g">values</text><text x="73.146" y="1.67" class="g">[&apos;moderator&apos;]</text><text x="87.174" y="1.67" class="g">added</text><text x="93.186" y="1.67" class="g">to</text><text x="96.192" y="1.67" class="g">field</text><text x="102.204" y="1.67" class="g">&apos;role&apos;</text><text x="109.218" y="1.67" class="g">in</text><text x="112.224" y="1.67" class="g">GET</text><text x="116.232" y="1.67" class="g">/users/{id}</text><text x="162.324" y="1.67" class="g">│</text></symbol><symbol id="20"><text y="1.67" class="i">╭────────────────────────────────────────────────────────────────────────────</text><text x="78.156" y="1.67" class="i">Summary</text><text x="86.172" y="1.67" class="i">────────────────────────────────────────────────────────────────────────────╮</text></symbol><symbol id="21"><text y="1.67" class="i">│</text><text x="2.004" y="1.67" class="k">2</text><text x="4.008" y="1.67" class="k">breaking</text><text x="12.024" y="1.67" class="i">,</text><text x="14.028" y="1.67" class="n">0</text><text x="16.032" y="1.67" class="n">risky</text><text x="21.042" y="1.67" class="i">,</text><text x="23.046" y="1.67" class="f">5</text><text x="25.05" y="1.67" class="f">safe</text><text x="30.06" y="1.67" class="i">changes</text><text x="38.076" y="1.67" class="i">detected.</text><text x="162.324" y="1.67" class="i">│</text></symbol><symbol id="22"><text y="1.67" class="f">pyjeebz@JEEBZ-PC</text><text x="16.032" y="1.67" class="g">:</text><text x="17.034" y="1.67" class="h">~/pactwatch</text><text x="28.056" y="1.67" class="g">$</text><text x="30.06" y="1.67" class="g">pactwatch</text><text x="40.08" y="1.67" class="g">check</text><text x="46.092" y="1.67" class="g">-c</text><text x="49.098" y="1.67" class="g">examples/demo-monorepo/pactwatch.yaml</text><text x="87.174" y="1.67" class="g">-p</text><text x="90.18" y="1.67" class="g">user-api</text><text x="99.198" y="1.67" class="g">--old</text><text x="105.21" y="1.67" class="g">examples/demo-monorepo/services/producer-api/openapi.yaml</text><text x="163.326" y="1.67" class="g">--new</text><text x="169.338" y="1.67" class="g">examples/dem</text></symbol><symbol id="23"><text y="1.67" class="g">o-monorepo/services/producer-api/openapi-breaking.yaml</text><path class="o" d="M54.108 0h127v2.171h-127z"/><text x="54.108" y="1.67" class="p"></text></symbol><symbol id="24"><text y="1.67" class="i">│</text><text x="2.004" y="1.67" class="j">PactWatch</text><text x="12.024" y="1.67" class="j">-</text><text x="14.028" y="1.67" class="j">Consumer</text><text x="23.046" y="1.67" class="j">Impact:</text><text x="31.062" y="1.67" class="j">user-api</text><text x="162.324" y="1.67" class="i">│</text></symbol><symbol id="25"><text x="76.152" y="1.67" class="l">mobile-app</text></symbol><symbol id="26"><text y="1.67" class="q">┏━━━━━━━━━━━━┳━━━━━━━━━━━━━━━━━━━━━━━━━━━━━━━━━━━━━━━━━━━━━━━━━┳━━━━━━━━━━━━━━━━━━━━━━━━━━━━━━━━━━━━━━━━━━━━━━━━━━━━━━━━━━━━━━━━━━━━━━━━━━━━━━━━━━━━━━━━━━━━━━━━━━┓</text></symbol><symbol id="27"><text y="1.67" class="q">┃</text><text x="2.004" y="1.67" class="l">Severity</text><text x="13.026" y="1.67" class="q">┃</text><text x="15.03" y="1.67" class="l">Path</text><text x="63.126" y="1.67" class="q">┃</text><text x="65.13" y="1.67" class="l">Change</text><text x="162.324" y="1.67" class="q">┃</text></symbol><symbol id="28"><text y="1.67" class="q">┡━━━━━━━━━━━━╇━━━━━━━━━━━━━━━━━━━━━━━━━━━━━━━━━━━━━━━━━━━━━━━━━╇━━━━━━━━━━━━━━━━━━━━━━━━━━━━━━━━━━━━━━━━━━━━━━━━━━━━━━━━━━━━━━━━━━━━━━━━━━━━━━━━━━━━━━━━━━━━━━━━━━┩</text></symbol><symbol id="29"><text y="1.67" class="q">│</text><text x="2.004" y="1.67" class="k">[X]</text><text x="13.026" y="1.67" class="q">│</text><text x="15.03" y="1.67" class="m">GET</text><text x="19.038" y="1.67" class="m">/users/{id}</text><text x="63.126" y="1.67" class="q">│</text><text x="65.13" y="1.67" class="g">Removed</text><text x="73.146" y="1.67" class="g">required</text><text x="82.164" y="1.67" class="g">response</text><text x="91.182" y="1.67" class="g">field</text><text x="97.194" y="1.67" class="g">&apos;email&apos;</text><text x="105.21" y="1.67" class="g">from</text><text x="110.22" y="1.67" class="g">GET</text><text x="114.228" y="1.67" class="g">/users/{id}</text><text x="162.324" y="1.67" class="q">│</text></symbol><symbol id="30"><text y="1.67" class="q">│</text><text x="2.004" y="1.67" class="k">BREAKING</text><text x="13.026" y="1.67" class="q">│</text><text x="63.126" y="1.67" class="q">│</text><text x="162.324" y="1.67" class="q">│</text></symbol><symbol id="31"><text y="1.67" class="q">├────────────┼─────────────────────────────────────────────────┼──────────────────────────────────────────────────────────────────────────────────────────────────┤</text></symbol><symbol id="32"><text y="1.67" class="q">│</text><text x="2.004" y="1.67" class="k">[X]</text><text x="13.026" y="1.67" class="q">│</text><text x="15.03" y="1.67" class="m">GET</text><text x="19.038" y="1.67" class="m">/users/{id}</text><text x="63.126" y="1.67" class="q">│</text><text x="65.13" y="1.67" class="g">Status</text><text x="72.144" y="1.67" class="g">code</text><text x="77.154" y="1.67" class="g">404</text><text x="81.162" y="1.67" class="g">removed</text><text x="89.178" y="1.67" class="g">from</text><text x="94.188" y="1.67" class="g">GET</text><text x="98.196" y="1.67" class="g">/users/{id}</text><text x="162.324" y="1.67" class="q">│</text></symbol><symbol id="33"><text y="1.67" class="q">│</text><text x="2.004" y="1.67" class="f">[+]</text><text x="6.012" y="1.67" class="f">SAFE</text><text x="13.026" y="1.67" class="q">│</text><text x="15.03" y="1.67" class="m">GET</text><text x="19.038" y="1.67" class="m">/users/{id}</text><text x="63.126" y="1.67" class="q">│</text><text x="65.13" y="1.67" class="g">New</text><text x="69.138" y="1.67" class="g">response</text><text x="78.156" y="1.67" class="g">field</text><text x="84.168" y="1.67" class="g">&apos;avatar_url&apos;</text><text x="97.194" y="1.67" class="g">added</text><text x="103.206" y="1.67" class="g">to</text><text x="106.212" y="1.67" class="g">GET</text><text x="110.22" y="1.67" class="g">/users/{id}</text><text x="162.324" y="1.67" class="q">│</text></symbol><symbol id="34"><text y="1.67" class="q">├────────────┼─────────────────────────────────────────────────┼─────────────────────────────────────────</text></symbol><symbol id="35"><text y="1.67" class="q">│</text><text x="2.004" y="1.67" class="f">[+]</text><text x="6.012" y="1.67" class="f">SAFE</text><text x="13.026" y="1.67" class="q">│</text><text x="15.03" y="1.67" class="m">GET</text><text x="19.038" y="1.67" class="m">/users/{id}</text><text x="63.126" y="1.67" class="q">│</text><text x="65.13" y="1.67" class="g">New</text><text x="69.138" y="1.67" class="g">enum</text><text x="74.148" y="1.67" class="g">values</text><text x="81.162" y="1.67" class="g">[&apos;moderator&apos;]</text><text x="95.19" y="1.67" class="g">added</text><text x="101.202" y="1.67" class="g">to</text><text x="104.208" y="1.67" class="g">field</text><text x="110.22" y="1.67" class="g">&apos;role&apos;</text><text x="117.234" y="1.67" class="g">in</text><text x="120.24" y="1.67" class="g">GET</text><text x="124.248" y="1.67" class="g">/users/{id}</text><text x="162.324" y="1.67" class="q">│</text></symbol><symbol id="36"><text y="1.67" class="q">└────────────┴─────────────────────────────────────────────────┴──────────────────────────────────────────────────────────────────────────────────────────────────┘</text></symbol><symbol id="37"><text x="75.15" y="1.67" class="l">web-dashboard</text></symbol><symbol id="38"><text y="1.67" class="q">│</text><text x="2.004" y="1.67" class="f">[+]</text><text x="6.012" y="1.67" class="f">SAFE</text><text x="13.026" y="1.67" class="q">│</text><text x="15.03" y="1.67" class="m">GET</text><text x="19.038" y="1.67" class="m">/admin/settings</text><text x="63.126" y="1.67" class="q">│</text><text x="65.13" y="1.67" class="g">New</text><text x="69.138" y="1.67" class="g">response</text><text x="78.156" y="1.67" class="g">field</text><text x="84.168" y="1.67" class="g">&apos;language&apos;</text><text x="95.19" y="1.67" class="g">added</text><text x="101.202" y="1.67" class="g">to</text><text x="104.208" y="1.67" class="g">GET</text><text x="108.216" y="1.67" class="g">/admin/settings</text><text x="162.324" y="1.67" class="q">│</text></symbol><symbol id="39"><text y="1.67" class="q">│</text><text x="2.004" y="1.67" class="f">[+]</text><text x="6.012" y="1.67" class="f">SAFE</text><text x="13.026" y="1.67" class="q">│</text><text x="15.03" y="1.67" class="m">GET</text><text x="19.038" y="1.67" class="m">/users</text><text x="63.126" y="1.67" class="q">│</text><text x="65.13" y="1.67" class="g">Description/summary</text><text x="85.17" y="1.67" class="g">changed</text><text x="93.186" y="1.67" class="g">on</text><text x="96.192" y="1.67" class="g">GET</text><text x="100.2" y="1.67" class="g">/users</text><text x="162.324" y="1.67" class="q">│</text></symbol><symbol id="40"><text y="1.67" class="i">│</text><text x="2.004" y="1.67" class="i">2</text><text x="4.008" y="1.67" class="i">consumers</text><text x="14.028" y="1.67" class="i">checked.</text><text x="23.046" y="1.67" class="n">2</text><text x="25.05" y="1.67" class="n">affected</text><text x="33.066" y="1.67" class="i">,</text><text x="35.07" y="1.67" class="k">2</text><text x="37.074" y="1.67" class="k">with</text><text x="42.084" y="1.67" class="k">breaking</text><text x="51.102" y="1.67" class="k">changes</text><text x="58.116" y="1.67" class="i">.</text><text x="162.324" y="1.67" class="i">│</text></symbol><symbol id="41"><text y="1.67" class="f">pyjeebz@JEEBZ-PC</text><text x="16.032" y="1.67" class="g">:</text><text x="17.034" y="1.67" class="h">~/pactwatch</text><text x="28.056" y="1.67" class="g">$</text><text x="30.06" y="1.67" class="g">exit</text></symbol><symbol id="a"><path fill="transparent" d="M0 0h181v26H0z"/></symbol><symbol id="b"><path fill="#6f7683" d="M0 0h1.102v2.171H0z"/></symbol></defs><path class="a" d="M0 0h181v54.275H0z"/><g style="animation-duration:64.221117s;animation-iteration-count:infinite;animation-name:t;animation-timing-function:steps(1,end)"><svg width="6697"><svg><use xlink:href="#a"/><use xlink:href="#b" x="-.004"/></svg><svg x="181"><use xlink:href="#a"/><use xlink:href="#b" x="29.996"/><use xlink:href="#1"/></svg><svg x="362"><use xlink:href="#a"/><use xlink:href="#b" x="168.996"/><text y="1.67" class="f">pyjeebz@JEEBZ-PC</text><text x="16.032" y="1.67" class="g">:</text><text x="17.034" y="1.67" class="h">~/pactwatch</text><text x="28.056" y="1.67" class="g">$</text><path class="o" d="M30.06 0h139v2.171h-139z"/><text x="30.06" y="1.67" class="p">pactwatch diff examples/demo-monorepo/services/producer-api/openapi.yaml examples/demo-monorepo/services/producer-api/openapi-breaking.yaml</text></svg><svg x="543"><use xlink:href="#a"/><use xlink:href="#b" x="168.996"/><use xlink:href="#2"/></svg><svg x="724"><use xlink:href="#a"/><use xlink:href="#b" x="168.996"/><use xlink:href="#2"/></svg><svg x="905"><use xlink:href="#a"/><use xlink:href="#b" x="168.996"/><use xlink:href="#2"/></svg><svg x="1086"><use xlink:href="#a"/><use xlink:href="#b" x="-.004" y="2.146"/><use xlink:href="#2"/></svg><svg x="1267"><use xlink:href="#a"/><use xlink:href="#b" x="-.004" y="4.317"/><use xlink:href="#2"/></svg><svg x="1448"><use xlink:href="#a"/><use xlink:href="#b" x="-.004" y="8.659"/><use xlink:href="#2"/><use xlink:href="#3" y="4.342"/><use xlink:href="#4" y="6.513"/></svg><svg x="1629"><use xlink:href="#a"/><use xlink:href="#b" x="-.004" y="10.83"/><use xlink:href="#2"/><use xlink:href="#3" y="4.342"/><use xlink:href="#4" y="6.513"/><use xlink:href="#5" y="8.684"/></svg><svg x="1810"><use xlink:href="#a"/><use xlink:href="#b" x="-.004" y="13.001"/><use xlink:href="#2"/><use xlink:href="#3" y="4.342"/><use xlink:href="#4" y="6.513"/><use xlink:href="#5" y="8.684"/></svg><svg x="1991"><use xlink:href="#a"/><use xlink:href="#b" x="-.004" y="32.54"/><use xlink:href="#2"/><use xlink:href="#3" y="4.342"/><use xlink:href="#4" y="6.513"/><use xlink:href="#5" y="8.684"/><use xlink:href="#6" y="13.026"/><use xlink:href="#7" y="15.197"/><use xlink:href="#8" y="17.368"/><use xlink:href="#9" y="19.539"/><use xlink:href="#10" y="21.71"/><use xlink:href="#11" y="23.881"/><use xlink:href="#12" y="26.052"/><use xlink:href="#13" y="28.223"/></svg><svg x="2172"><use xlink:href="#a"/><use xlink:href="#b" x="150.996" y="54.25"/><use xlink:href="#3" y="2.171"/><use xlink:href="#4" y="4.342"/><use xlink:href="#5" y="6.513"/><use xlink:href="#6" y="10.855"/><use xlink:href="#7" y="13.026"/><use xlink:href="#8" y="15.197"/><use xlink:href="#9" y="17.368"/><use xlink:href="#10" y="19.539"/><use xlink:href="#11" y="21.71"/><use xlink:href="#12" y="23.881"/><use xlink:href="#13" y="26.052"/><use xlink:href="#14" y="30.394"/><use xlink:href="#7" y="32.565"/><use xlink:href="#8" y="34.736"/><use xlink:href="#9" y="36.907"/><use xlink:href="#15" y="39.078"/><use xlink:href="#11" y="41.249"/><use xlink:href="#16" y="43.42"/><use xlink:href="#11" y="45.591"/><use xlink:href="#17" y="47.762"/><use xlink:href="#11" y="49.933"/><use xlink:href="#18" y="52.104"/><text y="55.945" class="g">├──────────────────────────────────────────────────────┼───────────────────────────────────────────────────────────────────────────────────────────────</text></svg><svg x="2353"><use xlink:href="#a"/><use xlink:href="#b" x="-.004" y="54.25"/><use xlink:href="#6" y="2.171"/><use xlink:href="#7" y="4.342"/><use xlink:href="#8" y="6.513"/><use xlink:href="#9" y="8.684"/><use xlink:href="#10" y="10.855"/><use xlink:href="#11" y="13.026"/><use xlink:href="#12" y="15.197"/><use xlink:href="#13" y="17.368"/><use xlink:href="#14" y="21.71"/><use xlink:href="#7" y="23.881"/><use xlink:href="#8" y="26.052"/><use xlink:href="#9" y="28.223"/><use xlink:href="#15" y="30.394"/><use xlink:href="#11" y="32.565"/><use xlink:href="#16" y="34.736"/><use xlink:href="#11" y="36.907"/><use xlink:href="#17" y="39.078"/><use xlink:href="#11" y="41.249"/><use xlink:href="#18" y="43.42"/><use xlink:href="#11" y="45.591"/><use xlink:href="#19" y="47.762"/><use xlink:href="#13" y="49.933"/></svg><svg x="2534"><use xlink:href="#a"/><use xlink:href="#b" x="-.004" y="54.25"/><use xlink:href="#8"/><use xlink:href="#9" y="2.171"/><use xlink:href="#10" y="4.342"/><use xlink:href="#11" y="6.513"/><use xlink:href="#12" y="8.684"/><use xlink:href="#13" y="10.855"/><use xlink:href="#14" y="15.197"/><use xlink:href="#7" y="17.368"/><use xlink:href="#8" y="19.539"/><use xlink:href="#9" y="21.71"/><use xlink:href="#15" y="23.881"/><use xlink:href="#11" y="26.052"/><use xlink:href="#16" y="28.223"/><use xlink:href="#11" y="30.394"/><use xlink:href="#17" y="32.565"/><use xlink:href="#11" y="34.736"/><use xlink:href="#18" y="36.907"/><use xlink:href="#11" y="39.078"/><use xlink:href="#19" y="41.249"/><use xlink:href="#13" y="43.42"/><use xlink:href="#20" y="47.762"/><use xlink:href="#21" y="49.933"/><use xlink:href="#5" y="52.104"/></svg><svg x="2715"><use xlink:href="#a"/><use xlink:href="#b" x="-.004" y="54.25"/><use xlink:href="#9"/><use xlink:href="#10" y="2.171"/><use xlink:href="#11" y="4.342"/><use xlink:href="#12" y="6.513"/><use xlink:href="#13" y="8.684"/><use xlink:href="#14" y="13.026"/><use xlink:href="#7" y="15.197"/><use xlink:href="#8" y="17.368"/><use xlink:href="#9" y="19.539"/><use xlink:href="#15" y="21.71"/><use xlink:href="#11" y="23.881"/><use xlink:href="#16" y="26.052"/><use xlink:href="#11" y="28.223"/><use xlink:href="#17" y="30.394"/><use xlink:href="#11" y="32.565"/><use xlink:href="#18" y="34.736"/><use xlink:href="#11" y="36.907"/><use xlink:href="#19" y="39.078"/><use xlink:href="#13" y="41.249"/><use xlink:href="#20" y="45.591"/><use xlink:href="#21" y="47.762"/><use xlink:href="#5" y="49.933"/></svg><svg x="2896"><use xlink:href="#a"/><use xlink:href="#b" x="29.996" y="54.25"/><use xlink:href="#9"/><use xlink:href="#10" y="2.171"/><use xlink:href="#11" y="4.342"/><use xlink:href="#12" y="6.513"/><use xlink:href="#13" y="8.684"/><use xlink:href="#14" y="13.026"/><use xlink:href="#7" y="15.197"/><use xlink:href="#8" y="17.368"/><use xlink:href="#9" y="19.539"/><use xlink:href="#15" y="21.71"/><use xlink:href="#11" y="23.881"/><use xlink:href="#16" y="26.052"/><use xlink:href="#11" y="28.223"/><use xlink:href="#17" y="30.394"/><use xlink:href="#11" y="32.565"/><use xlink:href="#18" y="34.736"/><use xlink:href="#11" y="36.907"/><use xlink:href="#19" y="39.078"/><use xlink:href="#13" y="41.249"/><use xlink:href="#20" y="45.591"/><use xlink:href="#21" y="47.762"/><use xlink:href="#5" y="49.933"/><use xlink:href="#1" y="54.275"/></svg><svg x="3077"><use xlink:href="#a"/><use xlink:href="#b" x="53.996" y="54.25"/><use xlink:href="#10"/><use xlink:href="#11" y="2.171"/><use xlink:href="#12" y="4.342"/><use xlink:href="#13" y="6.513"/><use xlink:href="#14" y="10.855"/><use xlink:href="#7" y="13.026"/><use xlink:href="#8" y="15.197"/><use xlink:href="#9" y="17.368"/><use xlink:href="#15" y="19.539"/><use xlink:href="#11" y="21.71"/><use xlink:href="#16" y="23.881"/><use xlink:href="#11" y="26.052"/><use xlink:href="#17" y="28.223"/><use xlink:href="#11" y="30.394"/><use xlink:href="#18" y="32.565"/><use xlink:href="#11" y="34.736"/><use xlink:href="#19" y="36.907"/><use xlink:href="#13" y="39.078"/><use xlink:href="#20" y="43.42"/><use xlink:href="#21" y="45.591"/><use xlink:href="#5" y="47.762"/><text y="53.774" class="f">pyjeebz@JEEBZ-PC</text><text x="16.032" y="53.774" class="g">:</text><text x="17.034" y="53.774" class="h">~/pactwatch</text><text x="28.056" y="53.774" class="g">$</text><path class="o" d="M30.06 52.104h151v2.171h-151z"/><text x="30.06" y="53.774" class="p">pactwatch check -c examples/demo-monorepo/pactwatch.yaml -p user-api --old examples/demo-monorepo/services/producer-api/openapi.yaml --new examples/dem</text><path class="o" d="M0 54.275h181v2.171H0z"/><text y="55.945" class="p">o-monorepo/services/producer-api/openapi-breaking.yaml</text></svg><svg x="3258"><use xlink:href="#a"/><use xlink:href="#b" x="53.996" y="54.25"/><use xlink:href="#10"/><use xlink:href="#11" y="2.171"/><use xlink:href="#12" y="4.342"/><use xlink:href="#13" y="6.513"/><use xlink:href="#14" y="10.855"/><use xlink:href="#7" y="13.026"/><use xlink:href="#8" y="15.197"/><use xlink:href="#9" y="17.368"/><use xlink:href="#15" y="19.539"/><use xlink:href="#11" y="21.71"/><use xlink:href="#16" y="23.881"/><use xlink:href="#11" y="26.052"/><use xlink:href="#17" y="28.223"/><use xlink:href="#11" y="30.394"/><use xlink:href="#18" y="32.565"/><use xlink:href="#11" y="34.736"/><use xlink:href="#19" y="36.907"/><use xlink:href="#13" y="39.078"/><use xlink:href="#20" y="43.42"/><use xlink:href="#21" y="45.591"/><use xlink:href="#5" y="47.762"/><use xlink:href="#22" y="52.104"/><use xlink:href="#23" y="54.275"/></svg><svg x="3439"><use xlink:href="#a"/><use xlink:href="#b" x="-.004" y="54.25"/><use xlink:href="#11"/><use xlink:href="#12" y="2.171"/><use xlink:href="#13" y="4.342"/><use xlink:href="#14" y="8.684"/><use xlink:href="#7" y="10.855"/><use xlink:href="#8" y="13.026"/><use xlink:href="#9" y="15.197"/><use xlink:href="#15" y="17.368"/><use xlink:href="#11" y="19.539"/><use xlink:href="#16" y="21.71"/><use xlink:href="#11" y="23.881"/><use xlink:href="#17" y="26.052"/><use xlink:href="#11" y="28.223"/><use xlink:href="#18" y="30.394"/><use xlink:href="#11" y="32.565"/><use xlink:href="#19" y="34.736"/><use xlink:href="#13" y="36.907"/><use xlink:href="#20" y="41.249"/><use xlink:href="#21" y="43.42"/><use xlink:href="#5" y="45.591"/><use xlink:href="#22" y="49.933"/><use xlink:href="#23" y="52.104"/></svg><svg x="3620"><use xlink:href="#a"/><use xlink:href="#b" x="-.004" y="54.25"/><use xlink:href="#11"/><use xlink:href="#12" y="2.171"/><use xlink:href="#13" y="4.342"/><use xlink:href="#14" y="8.684"/><use xlink:href="#7" y="10.855"/><use xlink:href="#8" y="13.026"/><use xlink:href="#9" y="15.197"/><use xlink:href="#15" y="17.368"/><use xlink:href="#11" y="19.539"/><use xlink:href="#16" y="21.71"/><use xlink:href="#11" y="23.881"/><use xlink:href="#17" y="26.052"/><use xlink:href="#11" y="28.223"/><use xlink:href="#18" y="30.394"/><use xlink:href="#11" y="32.565"/><use xlink:href="#19" y="34.736"/><use xlink:href="#13" y="36.907"/><use xlink:href="#20" y="41.249"/><use xlink:href="#21" y="43.42"/><use xlink:href="#5" y="45.591"/><use xlink:href="#22" y="49.933"/><use xlink:href="#23" y="52.104"/></svg><svg x="3801"><use xlink:href="#a"/><use xlink:href="#b" x="-.004" y="54.25"/><use xlink:href="#12"/><use xlink:href="#13" y="2.171"/><use xlink:href="#14" y="6.513"/><use xlink:href="#7" y="8.684"/><use xlink:href="#8" y="10.855"/><use xlink:href="#9" y="13.026"/><use xlink:href="#15" y="15.197"/><use xlink:href="#11" y="17.368"/><use xlink:href="#16" y="19.539"/><use xlink:href="#11" y="21.71"/><use xlink:href="#17" y="23.881"/><use xlink:href="#11" y="26.052"/><use xlink:href="#18" y="28.223"/><use xlink:href="#11" y="30.394"/><use xlink:href="#19" y="32.565"/><use xlink:href="#13" y="34.736"/><use xlink:href="#20" y="39.078"/><use xlink:href="#21" y="41.249"/><use xlink:href="#5" y="43.42"/><use xlink:href="#22" y="47.762"/><use xlink:href="#23" y="49.933"/></svg><svg x="3982"><use xlink:href="#a"/><use xlink:href="#b" x="-.004" y="54.25"/><use xlink:href="#14" y="2.171"/><use xlink:href="#7" y="4.342"/><use xlink:href="#8" y="6.513"/><use xlink:href="#9" y="8.684"/><use xlink:href="#15" y="10.855"/><use xlink:href="#11" y="13.026"/><use xlink:href="#16" y="15.197"/><use xlink:href="#11" y="17.368"/><use xlink:href="#17" y="19.539"/><use xlink:href="#11" y="21.71"/><use xlink:href="#18" y="23.881"/><use xlink:href="#11" y="26.052"/><use xlink:href="#19" y="28.223"/><use xlink:href="#13" y="30.394"/><use xlink:href="#20" y="34.736"/><use xlink:href="#21" y="36.907"/><use xlink:href="#5" y="39.078"/><use xlink:href="#22" y="43.42"/><use xlink:href="#23" y="45.591"/><use xlink:href="#3" y="49.933"/><use xlink:href="#24" y="52.104"/></svg><svg x="4163"><use xlink:href="#a"/><use xlink:href="#b" x="-.004" y="54.25"/><use xlink:href="#14"/><use xlink:href="#7" y="2.171"/><use xlink:href="#8" y="4.342"/><use xlink:href="#9" y="6.513"/><use xlink:href="#15" y="8.684"/><use xlink:href="#11" y="10.855"/><use xlink:href="#16" y="13.026"/><use xlink:href="#11" y="15.197"/><use xlink:href="#17" y="17.368"/><use xlink:href="#11" y="19.539"/><use xlink:href="#18" y="21.71"/><use xlink:href="#11" y="23.881"/><use xlink:href="#19" y="26.052"/><use xlink:href="#13" y="28.223"/><use xlink:href="#20" y="32.565"/><use xlink:href="#21" y="34.736"/><use xlink:href="#5" y="36.907"/><use xlink:href="#22" y="41.249"/><use xlink:href="#23" y="43.42"/><use xlink:href="#3" y="47.762"/><use xlink:href="#24" y="49.933"/><use xlink:href="#5" y="52.104"/></svg><svg x="4344"><use xlink:href="#a"/><use xlink:href="#b" x="-.004" y="54.25"/><use xlink:href="#7"/><use xlink:href="#8" y="2.171"/><use xlink:href="#9" y="4.342"/><use xlink:href="#15" y="6.513"/><use xlink:href="#11" y="8.684"/><use xlink:href="#16" y="10.855"/><use xlink:href="#11" y="13.026"/><use xlink:href="#17" y="15.197"/><use xlink:href="#11" y="17.368"/><use xlink:href="#18" y="19.539"/><use xlink:href="#11" y="21.71"/><use xlink:href="#19" y="23.881"/><use xlink:href="#13" y="26.052"/><use xlink:href="#20" y="30.394"/><use xlink:href="#21" y="32.565"/><use xlink:href="#5" y="34.736"/><use xlink:href="#22" y="39.078"/><use xlink:href="#23" y="41.249"/><use xlink:href="#3" y="45.591"/><use xlink:href="#24" y="47.762"/><use xlink:href="#5" y="49.933"/></svg><svg x="4525"><use xlink:href="#a"/><use xlink:href="#b" x="104.996" y="54.25"/><use xlink:href="#19"/><use xlink:href="#13" y="2.171"/><use xlink:href="#20" y="6.513"/><use xlink:href="#21" y="8.684"/><use xlink:href="#5" y="10.855"/><use xlink:href="#22" y="15.197"/><use xlink:href="#23" y="17.368"/><use xlink:href="#3" y="21.71"/><use xlink:href="#24" y="23.881"/><use xlink:href="#5" y="26.052"/><use xlink:href="#25" y="30.394"/><use xlink:href="#26" y="32.565"/><use xlink:href="#27" y="34.736"/><use xlink:href="#28" y="36.907"/><use xlink:href="#29" y="39.078"/><use xlink:href="#30" y="41.249"/><use xlink:href="#31" y="43.42"/><use xlink:href="#32" y="45.591"/><use xlink:href="#30" y="47.762"/><use xlink:href="#31" y="49.933"/><use xlink:href="#33" y="52.104"/><use xlink:href="#34" y="54.275"/></svg><svg x="4706"><use xlink:href="#a"/><use xlink:href="#b" x="-.004" y="54.25"/><use xlink:href="#21"/><use xlink:href="#5" y="2.171"/><use xlink:href="#22" y="6.513"/><use xlink:href="#23" y="8.684"/><use xlink:href="#3" y="13.026"/><use xlink:href="#24" y="15.197"/><use xlink:href="#5" y="17.368"/><use xlink:href="#25" y="21.71"/><use xlink:href="#26" y="23.881"/><use xlink:href="#27" y="26.052"/><use xlink:href="#28" y="28.223"/><use xlink:href="#29" y="30.394"/><use xlink:href="#30" y="32.565"/><use xlink:href="#31" y="34.736"/><use xlink:href="#32" y="36.907"/><use xlink:href="#30" y="39.078"/><use xlink:href="#31" y="41.249"/><use xlink:href="#33" y="43.42"/><use xlink:href="#31" y="45.591"/><use xlink:href="#35" y="47.762"/><use xlink:href="#36" y="49.933"/></svg><svg x="4887"><use xlink:href="#a"/><use xlink:href="#b" x="104.996" y="54.25"/><use xlink:href="#26"/><use xlink:href="#27" y="2.171"/><use xlink:href="#28" y="4.342"/><use xlink:href="#29" y="6.513"/><use xlink:href="#30" y="8.684"/><use xlink:href="#31" y="10.855"/><use xlink:href="#32" y="13.026"/><use xlink:href="#30" y="15.197"/><use xlink:href="#31" y="17.368"/><use xlink:href="#33" y="19.539"/><use xlink:href="#31" y="21.71"/><use xlink:href="#35" y="23.881"/><use xlink:href="#36" y="26.052"/><use xlink:href="#37" y="30.394"/><use xlink:href="#26" y="32.565"/><use xlink:href="#27" y="34.736"/><use xlink:href="#28" y="36.907"/><use xlink:href="#29" y="39.078"/><use xlink:href="#30" y="41.249"/><use xlink:href="#31" y="43.42"/><use xlink:href="#32" y="45.591"/><use xlink:href="#30" y="47.762"/><use xlink:href="#31" y="49.933"/><use xlink:href="#38" y="52.104"/><use xlink:href="#34" y="54.275"/></svg><svg x="5068"><use xlink:href="#a"/><use xlink:href="#b" x="-.004" y="54.25"/><use xlink:href="#31"/><use xlink:href="#33" y="2.171"/><use xlink:href="#31" y="4.342"/><use xlink:href="#35" y="6.513"/><use xlink:href="#36" y="8.684"/><use xlink:href="#37" y="13.026"/><use xlink:href="#26" y="15.197"/><use xlink:href="#27" y="17.368"/><use xlink:href="#28" y="19.539"/><use xlink:href="#29" y="21.71"/><use xlink:href="#30" y="23.881"/><use xlink:href="#31" y="26.052"/><use xlink:href="#32" y="28.223"/><use xlink:href="#30" y="30.394"/><use xlink:href="#31" y="32.565"/><use xlink:href="#38" y="34.736"/><use xlink:href="#31" y="36.907"/><use xlink:href="#39" y="39.078"/><use xlink:href="#31" y="41.249"/><use xlink:href="#33" y="43.42"/><use xlink:href="#31" y="45.591"/><use xlink:href="#35" y="47.762"/><use xlink:href="#36" y="49.933"/></svg><svg x="5249"><use xlink:href="#a"/><use xlink:href="#b" x="-.004" y="54.25"/><use xlink:href="#36"/><use xlink:href="#37" y="4.342"/><use xlink:href="#26" y="6.513"/><use xlink:href="#27" y="8.684"/><use xlink:href="#28" y="10.855"/><use xlink:href="#29" y="13.026"/><use xlink:href="#30" y="15.197"/><use xlink:href="#31" y="17.368"/><use xlink:href="#32" y="19.539"/><use xlink:href="#30" y="21.71"/><use xlink:href="#31" y="23.881"/><use xlink:href="#38" y="26.052"/><use xlink:href="#31" y="28.223"/><use xlink:href="#39" y="30.394"/><use xlink:href="#31" y="32.565"/><use xlink:href="#33" y="34.736"/><use xlink:href="#31" y="36.907"/><use xlink:href="#35" y="39.078"/><use xlink:href="#36" y="41.249"/><use xlink:href="#20" y="45.591"/><use xlink:href="#40" y="47.762"/><use xlink:href="#5" y="49.933"/></svg><svg x="5430"><use xlink:href="#a"/><use xlink:href="#b" x="29.996" y="54.25"/><use xlink:href="#36"/><use xlink:href="#37" y="4.342"/><use xlink:href="#26" y="6.513"/><use xlink:href="#27" y="8.684"/><use xlink:href="#28" y="10.855"/><use xlink:href="#29" y="13.026"/><use xlink:href="#30" y="15.197"/><use xlink:href="#31" y="17.368"/><use xlink:href="#32" y="19.539"/><use xlink:href="#30" y="21.71"/><use xlink:href="#31" y="23.881"/><use xlink:href="#38" y="26.052"/><use xlink:href="#31" y="28.223"/><use xlink:href="#39" y="30.394"/><use xlink:href="#31" y="32.565"/><use xlink:href="#33" y="34.736"/><use xlink:href="#31" y="36.907"/><use xlink:href="#35" y="39.078"/><use xlink:href="#36" y="41.249"/><use xlink:href="#20" y="45.591"/><use xlink:href="#40" y="47.762"/><use xlink:href="#5" y="49.933"/><use xlink:href="#1" y="54.275"/></svg><svg x="5611"><use xlink:href="#a"/><use xlink:href="#b" x="30.996" y="54.25"/><use xlink:href="#36"/><use xlink:href="#37" y="4.342"/><use xlink:href="#26" y="6.513"/><use xlink:href="#27" y="8.684"/><use xlink:href="#28" y="10.855"/><use xlink:href="#29" y="13.026"/><use xlink:href="#30" y="15.197"/><use xlink:href="#31" y="17.368"/><use xlink:href="#32" y="19.539"/><use xlink:href="#30" y="21.71"/><use xlink:href="#31" y="23.881"/><use xlink:href="#38" y="26.052"/><use xlink:href="#31" y="28.223"/><use xlink:href="#39" y="30.394"/><use xlink:href="#31" y="32.565"/><use xlink:href="#33" y="34.736"/><use xlink:href="#31" y="36.907"/><use xlink:href="#35" y="39.078"/><use xlink:href="#36" y="41.249"/><use xlink:href="#20" y="45.591"/><use xlink:href="#40" y="47.762"/><use xlink:href="#5" y="49.933"/><text y="55.945" class="f">pyjeebz@JEEBZ-PC</text><text x="16.032" y="55.945" class="g">:</text><text x="17.034" y="55.945" class="h">~/pactwatch</text><text x="28.056" y="55.945" class="g">$</text><text x="30.06" y="55.945" class="g">e</text></svg><svg x="5792"><use xlink:href="#a"/><use xlink:href="#b" x="31.996" y="54.25"/><use xlink:href="#36"/><use xlink:href="#37" y="4.342"/><use xlink:href="#26" y="6.513"/><use xlink:href="#27" y="8.684"/><use xlink:href="#28" y="10.855"/><use xlink:href="#29" y="13.026"/><use xlink:href="#30" y="15.197"/><use xlink:href="#31" y="17.368"/><use xlink:href="#32" y="19.539"/><use xlink:href="#30" y="21.71"/><use xlink:href="#31" y="23.881"/><use xlink:href="#38" y="26.052"/><use xlink:href="#31" y="28.223"/><use xlink:href="#39" y="30.394"/><use xlink:href="#31" y="32.565"/><use xlink:href="#33" y="34.736"/><use xlink:href="#31" y="36.907"/><use xlink:href="#35" y="39.078"/><use xlink:href="#36" y="41.249"/><use xlink:href="#20" y="45.591"/><use xlink:href="#40" y="47.762"/><use xlink:href="#5" y="49.933"/><text y="55.945" class="f">pyjeebz@JEEBZ-PC</text><text x="16.032" y="55.945" class="g">:</text><text x="17.034" y="55.945" class="h">~/pactwatch</text><text x="28.056" y="55.945" class="g">$</text><text x="30.06" y="55.945" class="g">ex</text></svg><svg x="5973"><use xlink:href="#a"/><use xlink:href="#b" x="32.996" y="54.25"/><use xlink:href="#36"/><use xlink:href="#37" y="4.342"/><use xlink:href="#26" y="6.513"/><use xlink:href="#27" y="8.684"/><use xlink:href="#28" y="10.855"/><use xlink:href="#29" y="13.026"/><use xlink:href="#30" y="15.197"/><use xlink:href="#31" y="17.368"/><use xlink:href="#32" y="19.539"/><use xlink:href="#30" y="21.71"/><use xlink:href="#31" y="23.881"/><use xlink:href="#38" y="26.052"/><use xlink:href="#31" y="28.223"/><use xlink:href="#39" y="30.394"/><use xlink:href="#31" y="32.565"/><use xlink:href="#33" y="34.736"/><use xlink:href="#31" y="36.907"/><use xlink:href="#35" y="39.078"/><use xlink:href="#36" y="41.249"/><use xlink:href="#20" y="45.591"/><use xlink:href="#40" y="47.762"/><use xlink:href="#5" y="49.933"/><text y="55.945" class="f">pyjeebz@JEEBZ-PC</text><text x="16.032" y="55.945" class="g">:</text><text x="17.034" y="55.945" class="h">~/pactwatch</text><text x="28.056" y="55.945" class="g">$</text><text x="30.06" y="55.945" class="g">exi</text></svg><svg x="6154"><use xlink:href="#a"/><use xlink:href="#b" x="33.996" y="54.25"/><use xlink:href="#36"/><use xlink:href="#37" y="4.342"/><use xlink:href="#26" y="6.513"/><use xlink:href="#27" y="8.684"/><use xlink:href="#28" y="10.855"/><use xlink:href="#29" y="13.026"/><use xlink:href="#30" y="15.197"/><use xlink:href="#31" y="17.368"/><use xlink:href="#32" y="19.539"/><use xlink:href="#30" y="21.71"/><use xlink:href="#31" y="23.881"/><use xlink:href="#38" y="26.052"/><use xlink:href="#31" y="28.223"/><use xlink:href="#39" y="30.394"/><use xlink:href="#31" y="32.565"/><use xlink:href="#33" y="34.736"/><use xlink:href="#31" y="36.907"/><use xlink:href="#35" y="39.078"/><use xlink:href="#36" y="41.249"/><use xlink:href="#20" y="45.591"/><use xlink:href="#40" y="47.762"/><use xlink:href="#5" y="49.933"/><use xlink:href="#41" y="54.275"/></svg><svg x="6335"><use xlink:href="#a"/><use xlink:href="#b" x="-.004" y="54.25"/><use xlink:href="#37" y="2.171"/><use xlink:href="#26" y="4.342"/><use xlink:href="#27" y="6.513"/><use xlink:href="#28" y="8.684"/><use xlink:href="#29" y="10.855"/><use xlink:href="#30" y="13.026"/><use xlink:href="#31" y="15.197"/><use xlink:href="#32" y="17.368"/><use xlink:href="#30" y="19.539"/><use xlink:href="#31" y="21.71"/><use xlink:href="#38" y="23.881"/><use xlink:href="#31" y="26.052"/><use xlink:href="#39" y="28.223"/><use xlink:href="#31" y="30.394"/><use xlink:href="#33" y="32.565"/><use xlink:href="#31" y="34.736"/><use xlink:href="#35" y="36.907"/><use xlink:href="#36" y="39.078"/><use xlink:href="#20" y="43.42"/><use xlink:href="#40" y="45.591"/><use xlink:href="#5" y="47.762"/><use xlink:href="#41" y="52.104"/></svg><svg x="6516"><use xlink:href="#a"/><use xlink:href="#b" x="-.004" y="54.25"/><use xlink:href="#37"/><use xlink:href="#26" y="2.171"/><use xlink:href="#27" y="4.342"/><use xlink:href="#28" y="6.513"/><use xlink:href="#29" y="8.684"/><use xlink:href="#30" y="10.855"/><use xlink:href="#31" y="13.026"/><use xlink:href="#32" y="15.197"/><use xlink:href="#30" y="17.368"/><use xlink:href="#31" y="19.539"/><use xlink:href="#38" y="21.71"/><use xlink:href="#31" y="23.881"/><use xlink:href="#39" y="26.052"/><use xlink:href="#31" y="28.223"/><use xlink:href="#33" y="30.394"/><use xlink:href="#31" y="32.565"/><use xlink:href="#35" y="34.736"/><use xlink:href="#36" y="36.907"/><use xlink:href="#20" y="41.249"/><use xlink:href="#40" y="43.42"/><use xlink:href="#5" y="45.591"/><use xlink:href="#41" y="49.933"/><text y="53.774" class="g">exit</text></svg></svg></g></g></svg></svg>